<svg class="svg-icon" style="width: 1em; height: 1em;vertical-align: middle;fill: currentColor;overflow: hidden;" viewBox="0 0 1024 1024" version="1.1" xmlns="http://www.w3.org/2000/svg"><path d="M637.653333 313.941333m-15.530666 0a15.530667 15.530667 0 1 0 31.061333 0 15.530667 15.530667 0 1 0-31.061333 0Z"  /><path d="M688.213333 313.941333m-15.530666 0a15.530667 15.530667 0 1 0 31.061333 0 15.530667 15.530667 0 1 0-31.061333 0Z"  /><path d="M738.005333 313.941333m-15.530666 0a15.530667 15.530667 0 1 0 31.061333 0 15.530667 15.530667 0 1 0-31.061333 0Z"  /><path d="M637.653333 373.845333m-15.530666 0a15.530667 15.530667 0 1 0 31.061333 0 15.530667 15.530667 0 1 0-31.061333 0Z"  /><path d="M688.213333 373.845333m-15.530666 0a15.530667 15.530667 0 1 0 31.061333 0 15.530667 15.530667 0 1 0-31.061333 0Z"  /><path d="M738.005333 373.845333m-15.530666 0a15.530667 15.530667 0 1 0 31.061333 0 15.530667 15.530667 0 1 0-31.061333 0Z"  /><path d="M658.090667 186.496l0.128-3.456c0.64-14.08 2.944-28.074667 6.784-41.642667 12.202667-42.538667 40.448-80.298667 79.317333-102.016 8.149333-4.522667 16.682667-8.362667 25.557333-11.349333A157.141333 157.141333 0 0 1 814.08 20.096h8.362667c15.104 0.64 29.866667 3.072 44.202666 7.936 7.594667 2.56 14.976 5.76 22.058667 9.472 35.626667 18.688 63.018667 50.944 77.525333 88.277333 7.68 19.754667 11.477333 40.490667 12.202667 61.610667 1.365333 116.949333 0.042667 233.941333 0.042667 350.890667a196.48 196.48 0 0 1-3.712 36.778666h13.226666s3.84 0.512 6.741334 1.493334a31.829333 31.829333 0 0 1 21.76 28.586666 32.341333 32.341333 0 0 1-15.445334 29.141334 32.256 32.256 0 0 1-16.512 4.565333h-38.656l-64.682666 225.024a88.96 88.96 0 0 1-58.282667 59.904c-5.461333 1.706667-15.146667 3.072-20.053333 3.669333 5.845333 10.069333 11.349333 20.309333 16.469333 30.72a32.853333 32.853333 0 0 1 3.114667 13.781334c0 14.933333-10.752 28.202667-25.344 31.317333a32.426667 32.426667 0 0 1-23.381334-4.053333 32.810667 32.810667 0 0 1-9.642666-9.130667 523.690667 523.690667 0 0 1-34.304-59.434667l-1.194667-2.816-421.76-0.042666a33.152 33.152 0 0 1-1.962667 4.352c-10.88 19.456-21.12 39.381333-33.536 57.941333a32.298667 32.298667 0 0 1-33.024 13.184 32.341333 32.341333 0 0 1-25.344-31.317333 32.853333 32.853333 0 0 1 3.114667-13.781334c5.077333-10.282667 10.496-20.437333 16.256-30.378666h-3.413333s-17.493333-1.877333-25.941334-4.522667a100.224 100.224 0 0 1-65.664-67.498667l-62.336-216.917333H39.850667s-2.304-0.042667-3.456-0.170667a32.256 32.256 0 0 1-20.949334-11.093333 31.914667 31.914667 0 0 1 17.536-51.968c2.986667-0.682667 6.869333-0.768 6.869334-0.768h5.930666a46.762667 46.762667 0 0 1-1.194666-17.237333 100.053333 100.053333 0 0 1 65.152-85.973334 99.029333 99.029333 0 0 1 68.181333-0.170666l1.706667 0.64a192.853333 192.853333 0 0 1 3.541333-4.693334l2.645333-3.2c4.394667-4.778667 8.96-9.301333 14.122667-13.269333a99.84 99.84 0 0 1 63.658667-20.309333c7.381333 0.426667 14.677333 1.365333 21.802666 3.285333a98.858667 98.858667 0 0 1 52.138667 34.773333c0.170667 0.213333 0.213333 0.085333 0.64 0.085334l2.346667 0.085333 4.693333 0.341333c9.898667 1.152 19.498667 3.626667 28.586667 7.722667a93.141333 93.141333 0 0 1 54.058666 77.098667c0.256 3.498667 0.469333 7.125333 0.042667 10.666666-0.341333 3.285333-0.042667 6.4-0.042667 9.557334h481.024c1.408-4.565333 2.645333-9.173333 3.541334-13.909334 1.194667-6.272 1.749333-12.586667 2.005333-18.986666 1.578667-117.504 1.408-235.008 0-352.469334a120.746667 120.746667 0 0 0-6.954667-37.461333c-9.216-25.514667-27.861333-47.872-52.736-59.306667a88.490667 88.490667 0 0 0-19.925333-6.485333 88.021333 88.021333 0 0 0-50.944 5.504c-10.154667 4.394667-19.498667 10.666667-27.562667 18.261333a107.349333 107.349333 0 0 0-23.296 32.384 114.389333 114.389333 0 0 0-10.922666 46.421334c24.064 14.250667 42.666667 42.282667 50.218666 70.912a19.370667 19.370667 0 0 1-18.944 23.082666c-33.493333 0.768-96.128 0.768-129.621333 0.768a20.138667 20.138667 0 0 1-19.712-23.978666c8.405333-29.738667 28.458667-58.88 54.058667-72.490667z m221.184 452.352H141.568c19.328 67.413333 34.005333 136.277333 58.197333 202.112a41.386667 41.386667 0 0 0 2.474667 5.205333c6.357333 10.666667 30.037333 17.706667 30.037333 17.706667h563.584l2.901334-0.128a24.746667 24.746667 0 0 0 20.778666-17.066667l0.256-0.810666 59.477334-207.018667zM364.928 574.250667c0-2.816-0.085333-5.717333-0.512-8.746667-0.384-2.901333-0.213333-5.845333-0.64-8.789333a28.629333 28.629333 0 0 0-25.045333-23.808 39.978667 39.978667 0 0 0-12.501334 1.28c-2.005333 0.256-1.962667 0.256-3.968 0.426666a31.957333 31.957333 0 0 1-26.496-11.946666c-2.645333-3.242667-4.096-7.04-6.101333-10.666667a36.778667 36.778667 0 0 0-12.885333-12.970667 34.474667 34.474667 0 0 0-49.92 20.565334c-0.64 2.261333-0.938667 4.565333-1.365334 6.869333-0.469333 1.962667-0.469333 1.962667-1.066666 3.84a33.792 33.792 0 0 1-7.253334 11.818667 32.256 32.256 0 0 1-43.52 2.261333c-2.304-1.962667-4.181333-4.266667-6.442666-6.272a37.418667 37.418667 0 0 0-16.469334-7.936 36.138667 36.138667 0 0 0-37.290666 16.597333 35.882667 35.882667 0 0 0-4.864 13.909334c-0.256 2.304-0.256 4.650667-0.341334 6.997333l-0.554666 3.968a46.293333 46.293333 0 0 1-0.725334 2.602667h257.962667z"  /></svg>