<svg class="svg-icon" style="width: 1em; height: 1em;vertical-align: middle;fill: currentColor;overflow: hidden;" viewBox="0 0 1024 1024" version="1.1" xmlns="http://www.w3.org/2000/svg"><path d="M853.333333 149.333333H170.666667a128 128 0 0 0-128 128v554.666667a42.666667 42.666667 0 0 0 42.666666 42.666667h170.666667a42.666667 42.666667 0 0 0 35.413333-19.2l72.96-108.8h295.253334l72.96 108.8a42.666667 42.666667 0 0 0 35.413333 19.2h170.666667a42.666667 42.666667 0 0 0 42.666666-42.666667v-554.666667a128 128 0 0 0-128-128z m42.666667 640h-104.96L718.08 682.666667a42.666667 42.666667 0 0 0-35.413333-21.333334H341.333333a42.666667 42.666667 0 0 0-35.413333 19.2L232.96 789.333333H128v-213.333333h768z m-597.333333-298.666666v-42.666667a42.666667 42.666667 0 0 1 42.666666-42.666667h85.333334a42.666667 42.666667 0 0 1 42.666666 42.666667v42.666667z m256 0v-42.666667a42.666667 42.666667 0 0 1 42.666666-42.666667h85.333334a42.666667 42.666667 0 0 1 42.666666 42.666667v42.666667z m341.333333 0h-85.333333v-42.666667a128 128 0 0 0-128-128h-85.333334a128 128 0 0 0-85.333333 33.28 128 128 0 0 0-85.333333-33.28H341.333333a128 128 0 0 0-128 128v42.666667H128v-213.333334a42.666667 42.666667 0 0 1 42.666667-42.666666h682.666666a42.666667 42.666667 0 0 1 42.666667 42.666666z"  /></svg>