<svg class="svg-icon" style="width: 1em; height: 1em;vertical-align: middle;fill: currentColor;overflow: hidden;" viewBox="0 0 1024 1024" version="1.1" xmlns="http://www.w3.org/2000/svg"><path d="M944 432.2h-31.8V175.8H112.7v256.4H82v287.7h94l0.2 48 32-0.1-0.2-47.9h608.1l0.2 48 32-0.1-0.2-47.9H944V432.2z m-32 32V560H114v-95.8h798z m-449.5-32H236V338h226.5v94.2z m329.3 0H565.3v-95.3h226.5v95.3zM144.7 207.8h735.5v224.4h-56.4V304.9H533.3v127.3h-38.8V306H204v126.2h-59.3V207.8zM114 687.9V592h798v95.8H114z" fill="" /></svg>