<svg version="1.1" id="Layer_1" xmlns="http://www.w3.org/2000/svg" xmlns:xlink="http://www.w3.org/1999/xlink" x="0px" y="0px"
	 width="100%" viewBox="0 0 122 120" enable-background="new 0 0 122 120" xml:space="preserve">
<path fill="#020203" opacity="1.000000" stroke="none" 
	d="
M72.000000,121.000000 
	C48.000000,121.000000 24.500000,121.000000 1.000000,121.000000 
	C1.000000,81.000000 1.000000,41.000000 1.000000,1.000000 
	C41.666668,1.000000 82.333336,1.000000 123.000000,1.000000 
	C123.000000,41.000000 123.000000,81.000000 123.000000,121.000000 
	C106.166664,121.000000 89.333336,121.000000 72.000000,121.000000 
M107.795448,82.298370 
	C110.792618,79.228577 113.789780,76.158791 116.967659,72.903915 
	C109.250648,62.968998 100.863197,53.590023 94.170593,43.126957 
	C88.322014,33.983406 81.276405,30.164013 70.798409,32.201599 
	C68.077713,32.730675 64.580154,32.095695 62.694519,33.584751 
	C55.566837,39.213379 48.955448,45.495811 41.901276,51.755024 
	C45.613632,55.911320 49.011150,59.715122 52.595623,63.728241 
	C55.411682,61.244236 57.905319,59.065971 60.374641,56.860481 
	C62.860069,54.640614 65.275314,52.339981 67.804924,50.172325 
	C70.901901,47.518494 76.427597,47.271744 78.571884,49.941082 
	C84.278946,57.045597 89.787704,64.309410 95.006348,71.034424 
	C88.827293,77.506897 82.575073,83.313919 77.222206,89.856728 
	C70.967728,97.501587 63.528496,100.478325 53.784054,99.261864 
	C48.039352,98.544716 41.238079,100.802872 36.572842,98.441566 
	C31.725214,95.987938 28.819426,89.625992 25.171230,84.890907 
	C19.356232,77.343483 13.629648,69.727936 7.579469,61.764484 
	C5.771282,77.122322 5.579324,91.252235 17.926411,102.280907 
	C20.975822,105.004707 22.840023,109.016464 25.676880,112.033943 
	C27.052904,113.497589 29.402721,114.823265 31.336843,114.859268 
	C44.498684,115.104225 57.669666,115.116150 70.831177,114.863609 
	C73.000801,114.821968 75.612244,113.610008 77.213646,112.089935 
	C87.364021,102.455070 97.287727,92.581421 107.795448,82.298370 
M34.552898,45.054119 
	C41.427887,38.261410 47.448166,30.131132 55.411919,25.042269 
	C63.819225,19.669977 74.476173,23.979010 84.087891,22.988287 
	C84.252800,22.971289 84.451241,22.927359 84.583122,22.995110 
	C86.619698,24.041363 89.274567,24.606422 90.575195,26.244497 
	C98.444298,36.155220 105.996574,46.317291 113.676331,56.378868 
	C114.503815,57.462997 115.470024,58.441246 116.984383,60.166344 
	C116.984383,51.492100 117.082779,43.854549 116.899750,36.223747 
	C116.863968,34.732327 115.997108,33.074345 115.069939,31.821491 
	C109.621727,24.459501 104.164848,17.095484 98.407845,9.977242 
	C97.187775,8.468690 94.724968,7.182501 92.808899,7.145864 
	C79.814026,6.897393 66.810379,6.902899 53.814541,7.121539 
	C51.777500,7.155810 49.308193,8.205159 47.816990,9.610762 
	C38.604580,18.294352 29.593803,27.192759 20.560465,36.065025 
	C16.086487,40.459229 11.707280,44.949917 7.258292,49.424007 
	C15.153323,59.543282 23.553230,68.926453 30.302053,79.375977 
	C36.224888,88.546593 43.463825,92.055893 53.867603,90.119011 
	C56.428158,89.642319 59.780800,90.378754 61.506435,88.989189 
	C68.701820,83.195168 75.415527,76.802963 82.470215,70.482872 
	C78.644707,66.237984 75.221794,62.439831 71.692841,58.524010 
	C66.258507,63.357132 61.198654,67.935394 56.046726,72.407593 
	C53.291000,74.799736 47.800869,74.816620 45.798634,72.332764 
	C40.077045,65.234894 34.503036,58.018066 28.710669,50.643932 
	C30.678701,48.764877 32.363457,47.156292 34.552898,45.054119 
z"/>
<path fill="#C1ADEA" opacity="1.000000" stroke="none" 
	d="
M107.540817,82.542450 
	C97.287727,92.581421 87.364021,102.455070 77.213646,112.089935 
	C75.612244,113.610008 73.000801,114.821968 70.831177,114.863609 
	C57.669666,115.116150 44.498684,115.104225 31.336843,114.859268 
	C29.402721,114.823265 27.052904,113.497589 25.676880,112.033943 
	C22.840023,109.016464 20.975822,105.004707 17.926411,102.280907 
	C5.579324,91.252235 5.771282,77.122322 7.579469,61.764484 
	C13.629648,69.727936 19.356232,77.343483 25.171230,84.890907 
	C28.819426,89.625992 31.725214,95.987938 36.572842,98.441566 
	C41.238079,100.802872 48.039352,98.544716 53.784054,99.261864 
	C63.528496,100.478325 70.967728,97.501587 77.222206,89.856728 
	C82.575073,83.313919 88.827293,77.506897 95.006348,71.034424 
	C89.787704,64.309410 84.278946,57.045597 78.571884,49.941082 
	C76.427597,47.271744 70.901901,47.518494 67.804924,50.172325 
	C65.275314,52.339981 62.860069,54.640614 60.374641,56.860481 
	C57.905319,59.065971 55.411682,61.244236 52.595623,63.728241 
	C49.011150,59.715122 45.613632,55.911320 41.901276,51.755024 
	C48.955448,45.495811 55.566837,39.213379 62.694519,33.584751 
	C64.580154,32.095695 68.077713,32.730675 70.798409,32.201599 
	C81.276405,30.164013 88.322014,33.983406 94.170593,43.126957 
	C100.863197,53.590023 109.250648,62.968998 116.967659,72.903915 
	C113.789780,76.158791 110.792618,79.228577 107.540817,82.542450 
z"/>
<path fill="#C1AEEB" opacity="1.000000" stroke="none" 
	d="
M34.300552,45.300915 
	C32.363457,47.156292 30.678701,48.764877 28.710669,50.643932 
	C34.503036,58.018066 40.077045,65.234894 45.798634,72.332764 
	C47.800869,74.816620 53.291000,74.799736 56.046726,72.407593 
	C61.198654,67.935394 66.258507,63.357132 71.692841,58.524010 
	C75.221794,62.439831 78.644707,66.237984 82.470215,70.482872 
	C75.415527,76.802963 68.701820,83.195168 61.506435,88.989189 
	C59.780800,90.378754 56.428158,89.642319 53.867603,90.119011 
	C43.463825,92.055893 36.224888,88.546593 30.302053,79.375977 
	C23.553230,68.926453 15.153323,59.543282 7.258292,49.424007 
	C11.707280,44.949917 16.086487,40.459229 20.560465,36.065025 
	C29.593803,27.192759 38.604580,18.294352 47.816990,9.610762 
	C49.308193,8.205159 51.777500,7.155810 53.814541,7.121539 
	C66.810379,6.902899 79.814026,6.897393 92.808899,7.145864 
	C94.724968,7.182501 97.187775,8.468690 98.407845,9.977242 
	C104.164848,17.095484 109.621727,24.459501 115.069939,31.821491 
	C115.997108,33.074345 116.863968,34.732327 116.899750,36.223747 
	C117.082779,43.854549 116.984383,51.492100 116.984383,60.166344 
	C115.470024,58.441246 114.503815,57.462997 113.676331,56.378868 
	C105.996574,46.317291 98.444298,36.155220 90.575195,26.244497 
	C89.274567,24.606422 86.619698,24.041363 84.583122,22.995110 
	C84.451241,22.927359 84.252800,22.971289 84.087891,22.988287 
	C74.476173,23.979010 63.819225,19.669977 55.411919,25.042269 
	C47.448166,30.131132 41.427887,38.261410 34.300552,45.300915 
z"/>
</svg>