<svg class="svg-icon" style="width: 1em;height: 1em;vertical-align: middle;fill: currentColor;overflow: hidden;" viewBox="0 0 1024 1024" version="1.1" xmlns="http://www.w3.org/2000/svg"><path d="M938.666667 832a21.333333 21.333333 0 0 1-21.333334 21.333333h-42.666666a21.333333 21.333333 0 0 1-21.333334-21.333333V682.666667H170.666667v149.333333a21.333333 21.333333 0 0 1-21.333334 21.333333h-42.666666a21.333333 21.333333 0 0 1-21.333334-21.333333v-640a21.333333 21.333333 0 0 1 21.333334-21.333333h42.666666a21.333333 21.333333 0 0 1 21.333334 21.333333V554.666667h725.333333a42.666667 42.666667 0 0 1 42.666667 42.666666zM853.333333 341.333333h-341.333333a85.333333 85.333333 0 0 0-85.333333 85.333334v64a21.333333 21.333333 0 0 0 21.333333 21.333333h469.333333a21.333333 21.333333 0 0 0 21.333334-21.333333V426.666667a85.333333 85.333333 0 0 0-85.333334-85.333334zM234.666667 512h128a21.333333 21.333333 0 0 0 21.333333-21.333333V469.333333a85.333333 85.333333 0 0 0-170.666667 0v21.333334a21.333333 21.333333 0 0 0 21.333334 21.333333z"  /></svg>